<svg xmlns="http://www.w3.org/2000/svg" width="25" height="25" viewBox="0 0 25 25" fill="none" data-optly-E9D3FEBC-EDCE-495A-8E25-1228A55F62A4="">
                    <path fill-rule="evenodd" clip-rule="evenodd" d="M20.2224 3.98478C20.1264 3.57163 19.7011 2.5 18.8905 2.5H6.10837C5.29662 2.5 4.87246 3.57163 4.77071 4.01372L4.50889 5.48345C4.47917 5.65241 4.5249 5.82601 4.63237 5.95793C4.74213 6.08871 4.90219 6.16509 5.0714 6.16509H5.80425L6.83323 20.9562C6.88581 21.8218 7.60038 22.5 8.46129 22.5H16.5387C17.3996 22.5 18.1142 21.8218 18.1656 20.962L19.1946 6.16509H19.9275C20.0978 6.16509 20.2579 6.08871 20.3665 5.95793C20.4751 5.82601 20.5208 5.65241 20.4911 5.48345L20.2224 3.98478ZM9 12.0005C9 10.0705 10.5706 8.5 12.5005 8.5C14.4303 8.5 16 10.0705 16 12.0005C16 13.9295 14.4303 15.5 12.5005 15.5C10.5706 15.5 9 13.9295 9 12.0005Z" fill="white" data-optly-E9D3FEBC-EDCE-495A-8E25-1228A55F62A4=""></path>
                </svg>